<svg data-v-35f9bdb1="" width="225" height="225" viewBox="0 0 225 225" fill="none" xmlns="http://www.w3.org/2000/svg"><g data-v-35f9bdb1="" filter="url(#filter0_i-567027)"><path data-v-35f9bdb1="" d="M26.9131 39.6163C67.167 -7.65172 138.117 -13.3378 185.385 26.916C232.653 67.1699 238.34 138.12 198.086 185.388C157.832 232.656 86.8814 238.343 39.6134 198.089C-7.65465 157.835 -13.3407 86.8843 26.9131 39.6163Z" fill="url(#paint0_radial-656264)"/></g> <path data-v-35f9bdb1="" d="M124.61 111.77L118.997 96.6159L103.835 102.231L100.569 93.4129L124.55 84.5312L133.428 108.504L124.61 111.77ZM139 123.548L135.734 114.73L126.916 117.996L130.182 126.814L139 123.548ZM120.689 120.303L105.535 125.915L99.9194 110.753L91.0996 114.014L91.101 114.019L99.982 138L123.967 129.117L120.689 120.303ZM97.6139 104.536L94.3481 95.7176L85.5303 98.9833L88.7961 107.802L97.6139 104.536Z" fill="url(#paint1_linear-214008)"/> <path data-v-35f9bdb1="" d="M106.139 108.446L106.137 108.445L115.085 105.131L118.396 114.071L118.4 114.084L118.388 114.089L109.448 117.4L106.134 108.452L106.133 108.447L106.139 108.446Z" fill="url(#paint2_linear-587121)"/> <defs data-v-35f9bdb1=""><filter data-v-35f9bdb1="" id="filter0_i-567027" x="0.0810547" y="0.0839844" width="224.837" height="224.837" filterUnits="userSpaceOnUse" color-interpolation-filters="sRGB"><feFlood data-v-35f9bdb1="" flood-opacity="0" result="BackgroundImageFix"/> <feBlend data-v-35f9bdb1="" mode="normal" in="SourceGraphic" in2="BackgroundImageFix" result="shape"/> <feColorMatrix data-v-35f9bdb1="" in="SourceAlpha" type="matrix" values="0 0 0 0 0 0 0 0 0 0 0 0 0 0 0 0 0 0 127 0" result="hardAlpha"/> <feOffset data-v-35f9bdb1=""/> <feGaussianBlur data-v-35f9bdb1="" stdDeviation="16.5"/> <feComposite data-v-35f9bdb1="" in2="hardAlpha" operator="arithmetic" k2="-1" k3="1"/> <feColorMatrix data-v-35f9bdb1="" type="matrix" values="0 0 0 0 0.844 0 0 0 0 0.5125 0 0 0 0 1 0 0 0 0.56 0"/> <feBlend data-v-35f9bdb1="" mode="normal" in2="shape" result="effect1_innerShadow"/></filter> <radialGradient data-v-35f9bdb1="" id="paint0_radial-656264" cx="0" cy="0" r="1" gradientUnits="userSpaceOnUse" gradientTransform="translate(186 174) rotate(-141.44) scale(241.271 214.882)"><stop data-v-35f9bdb1="" stop-color="#45122B"/> <stop data-v-35f9bdb1="" offset="0.692708" stop-color="#1B1200"/> <stop data-v-35f9bdb1="" offset="0.880208" stop-color="#FFE7D1"/></radialGradient> <linearGradient data-v-35f9bdb1="" id="paint1_linear-214008" x1="86.2962" y1="98.0714" x2="138.945" y2="127.493" gradientUnits="userSpaceOnUse"><stop data-v-35f9bdb1="" offset="0.273858" stop-color="#C69C4A" stop-opacity="0.28"/> <stop data-v-35f9bdb1="" offset="1" stop-color="#FF6B00" stop-opacity="0"/></linearGradient> <linearGradient data-v-35f9bdb1="" id="paint2_linear-587121" x1="86.2962" y1="98.0714" x2="138.945" y2="127.493" gradientUnits="userSpaceOnUse"><stop data-v-35f9bdb1="" offset="0.273858" stop-color="#C69C4A" stop-opacity="0.28"/> <stop data-v-35f9bdb1="" offset="1" stop-color="#FF6B00" stop-opacity="0"/></linearGradient></defs></svg>