<svg data-v-35f9bdb1="" width="198" height="198" viewBox="0 0 198 198" fill="none" xmlns="http://www.w3.org/2000/svg"><path data-v-35f9bdb1="" d="M179.592 156.484C211.339 111.975 200.994 50.1558 156.484 18.4082C111.975 -13.3394 50.1558 -2.99377 18.4082 41.5159C-13.3394 86.0255 -2.99378 147.844 41.5159 179.592C86.0255 211.339 147.844 200.994 179.592 156.484Z" fill="url(#paint0_radial-041919)"/> <path data-v-35f9bdb1="" fill-rule="evenodd" clip-rule="evenodd" d="M119.011 83.1063L95.0352 73.369L74.614 89.2628L78.1683 114.894L102.144 124.631L122.565 108.737L119.011 83.1063ZM117.32 84.4224L95.3295 75.4914L76.5993 90.0691L79.8592 113.578L101.849 122.509L120.58 107.931L117.32 84.4224Z" fill="url(#paint1_linear-753883)"/> <path data-v-35f9bdb1="" d="M87.5387 85.6679L86.8155 95.2527L108.285 92.2756L104.981 83.2492L87.5387 85.6679Z" fill="url(#paint2_linear-126392)"/> <path data-v-35f9bdb1="" d="M94.8791 100.402L94.9609 105.993L104.049 104.732L102.607 99.3304L103.914 94.1573L92.2135 95.7798L94.8791 100.402Z" fill="url(#paint3_linear-845331)"/> <path data-v-35f9bdb1="" d="M93.0287 100.659L87.223 98.1913L82.043 103.236L91.9989 115.832L95.3186 115.372L98.5439 111.43L98.3024 109.689L93.8513 106.59L93.0287 100.659Z" fill="url(#paint4_linear-823570)"/> <path data-v-35f9bdb1="" d="M104.457 99.0738L109.372 95.1198L115.73 98.5645L109.577 113.395L106.257 113.855L102.081 110.94L101.84 109.199L105.28 105.005L104.457 99.0738Z" fill="url(#paint5_linear-168400)"/> <defs data-v-35f9bdb1=""><radialGradient data-v-35f9bdb1="" id="paint0_radial-041919" cx="0" cy="0" r="1" gradientUnits="userSpaceOnUse" gradientTransform="translate(0.391836 172.375) rotate(-34.6141) scale(240.519)"><stop data-v-35f9bdb1="" offset="0.473925" stop-color="#07090F"/> <stop data-v-35f9bdb1="" offset="0.702566" stop-color="#07193E"/> <stop data-v-35f9bdb1="" offset="0.926338" stop-color="#015980"/></radialGradient> <linearGradient data-v-35f9bdb1="" id="paint1_linear-753883" x1="120" y1="74" x2="73.0002" y2="128" gradientUnits="userSpaceOnUse"><stop data-v-35f9bdb1="" stop-color="#68DBFF" stop-opacity="0.26"/> <stop data-v-35f9bdb1="" offset="1" stop-color="#48D3FF" stop-opacity="0"/></linearGradient> <linearGradient data-v-35f9bdb1="" id="paint2_linear-126392" x1="120" y1="74" x2="73.0002" y2="128" gradientUnits="userSpaceOnUse"><stop data-v-35f9bdb1="" stop-color="#68DBFF" stop-opacity="0.26"/> <stop data-v-35f9bdb1="" offset="1" stop-color="#48D3FF" stop-opacity="0"/></linearGradient> <linearGradient data-v-35f9bdb1="" id="paint3_linear-845331" x1="120" y1="74" x2="73.0002" y2="128" gradientUnits="userSpaceOnUse"><stop data-v-35f9bdb1="" stop-color="#68DBFF" stop-opacity="0.26"/> <stop data-v-35f9bdb1="" offset="1" stop-color="#48D3FF" stop-opacity="0"/></linearGradient> <linearGradient data-v-35f9bdb1="" id="paint4_linear-823570" x1="120" y1="74" x2="73.0002" y2="128" gradientUnits="userSpaceOnUse"><stop data-v-35f9bdb1="" stop-color="#68DBFF" stop-opacity="0.26"/> <stop data-v-35f9bdb1="" offset="1" stop-color="#48D3FF" stop-opacity="0"/></linearGradient> <linearGradient data-v-35f9bdb1="" id="paint5_linear-168400" x1="120" y1="74" x2="73.0002" y2="128" gradientUnits="userSpaceOnUse"><stop data-v-35f9bdb1="" stop-color="#68DBFF" stop-opacity="0.26"/> <stop data-v-35f9bdb1="" offset="1" stop-color="#48D3FF" stop-opacity="0"/></linearGradient></defs></svg>