<svg data-v-35f9bdb1="" width="168" height="168" viewBox="0 0 168 168" fill="none" xmlns="http://www.w3.org/2000/svg"><g data-v-35f9bdb1="" filter="url(#filter0_i-477343)"><path data-v-35f9bdb1="" d="M27.2155 145.899C-6.97015 114.537 -9.25984 61.4012 22.1014 27.2155C53.4625 -6.97014 106.599 -9.25984 140.784 22.1014C174.97 53.4625 177.26 106.599 145.899 140.784C114.537 174.97 61.4012 177.26 27.2155 145.899Z" fill="url(#paint0_radial-275648)"/></g> <g data-v-35f9bdb1="" opacity="0.1"><path data-v-35f9bdb1="" d="M77.9753 60.318L77.9466 61.4987L86.4562 93.257L86.8643 93.4921L99.2712 80.8282L77.9753 60.318Z" fill="white" fill-opacity="0.68"/> <path data-v-35f9bdb1="" d="M77.9752 60.3175L69.7875 88.7278L86.8642 93.4917L82.7339 78.0772L77.9752 60.3175Z" fill="white" fill-opacity="0.333"/> <path data-v-35f9bdb1="" d="M87.6118 96.2839L87.4896 96.5537L90.521 107.867L90.8444 108.348L100.029 83.622L87.6118 96.2839Z" fill="white" fill-opacity="0.68"/> <path data-v-35f9bdb1="" d="M90.8442 108.347L87.6116 96.2828L70.5361 91.5234L90.8442 108.347Z" fill="white" fill-opacity="0.333"/> <path data-v-35f9bdb1="" d="M86.8636 93.4904L99.2704 80.8267L82.7334 78.0762L86.8636 93.4904Z" fill="white"/> <path data-v-35f9bdb1="" d="M69.7876 88.7279L86.864 93.4916L82.7338 78.0773L69.7876 88.7279Z" fill="white" fill-opacity="0.68"/></g> <defs data-v-35f9bdb1=""><filter data-v-35f9bdb1="" id="filter0_i-477343" x="0" y="0" width="168" height="168" filterUnits="userSpaceOnUse" color-interpolation-filters="sRGB"><feFlood data-v-35f9bdb1="" flood-opacity="0" result="BackgroundImageFix"/> <feBlend data-v-35f9bdb1="" mode="normal" in="SourceGraphic" in2="BackgroundImageFix" result="shape"/> <feColorMatrix data-v-35f9bdb1="" in="SourceAlpha" type="matrix" values="0 0 0 0 0 0 0 0 0 0 0 0 0 0 0 0 0 0 127 0" result="hardAlpha"/> <feOffset data-v-35f9bdb1=""/> <feGaussianBlur data-v-35f9bdb1="" stdDeviation="23"/> <feComposite data-v-35f9bdb1="" in2="hardAlpha" operator="arithmetic" k2="-1" k3="1"/> <feColorMatrix data-v-35f9bdb1="" type="matrix" values="0 0 0 0 0.917667 0 0 0 0 0.683333 0 0 0 0 1 0 0 0 0.42 0"/> <feBlend data-v-35f9bdb1="" mode="normal" in2="shape" result="effect1_innerShadow"/></filter> <radialGradient data-v-35f9bdb1="" id="paint0_radial-275648" cx="0" cy="0" r="1" gradientUnits="userSpaceOnUse" gradientTransform="translate(14.7738 85.4778) rotate(-1.40027) scale(165.287 178.67)"><stop data-v-35f9bdb1="" stop-color="#386480"/> <stop data-v-35f9bdb1="" offset="0.682292" stop-color="#5B4BB9"/> <stop data-v-35f9bdb1="" offset="0.932292" stop-color="#F9FDFF"/></radialGradient></defs></svg>