<svg data-v-35f9bdb1="" width="179" height="178" viewBox="0 0 179 178" fill="none" xmlns="http://www.w3.org/2000/svg"><g data-v-35f9bdb1="" filter="url(#filter0_i-141938)"><path data-v-35f9bdb1="" d="M53.2509 170.25C98.1603 190.11 150.666 169.803 170.526 124.894C190.386 79.9846 170.08 27.4786 125.17 7.6186C80.261 -12.2414 27.755 8.06511 7.89497 52.9745C-11.9651 97.8839 8.34148 150.39 53.2509 170.25Z" fill="url(#paint0_radial-603119)"/></g> <path data-v-35f9bdb1="" d="M108.37 83.6923C109.187 78.1583 105.028 75.1834 99.3406 73.1988L101.185 65.7024L96.681 64.5652L94.8849 71.8641C93.7007 71.5651 92.4845 71.2831 91.2759 71.0037L93.0849 63.6567L88.583 62.5195L86.7368 70.0134C85.7567 69.7872 84.7944 69.5637 83.8604 69.3284L83.8656 69.305L77.6535 67.7338L76.4552 72.6075C76.4552 72.6075 79.7973 73.3834 79.7268 73.4315C81.5511 73.8928 81.8809 75.1158 81.8257 76.0854L79.7242 84.6254C79.8499 84.6579 80.0129 84.7047 80.1925 84.7775C80.0424 84.7398 79.882 84.6982 79.7165 84.6579L76.7708 96.6212C76.5476 97.1827 75.9818 98.0249 74.7066 97.7052C74.7515 97.7714 71.4325 96.8773 71.4325 96.8773L69.1963 102.101L75.0581 103.581C76.1486 103.858 77.2173 104.148 78.2693 104.42L76.4052 112.003L80.9045 113.14L82.7507 105.638C83.9798 105.976 85.1729 106.288 86.3404 106.582L84.5006 114.048L89.0051 115.186L90.8692 107.618C98.5503 109.09 104.326 108.496 106.757 101.459C108.716 95.7921 106.66 92.5234 102.619 90.392C105.562 89.7045 107.779 87.7433 108.37 83.6923V83.6923ZM98.0781 98.3121C96.6861 103.979 87.268 100.915 84.2145 100.147L86.6881 90.1022C89.7415 90.8742 99.533 92.4026 98.0781 98.3121ZM99.4714 83.6104C98.2013 88.7648 90.3625 86.146 87.8196 85.504L90.0622 76.3934C92.6051 77.0354 100.794 78.2337 99.4714 83.6104V83.6104Z" fill="url(#paint1_linear-622963)"/> <defs data-v-35f9bdb1=""><filter data-v-35f9bdb1="" id="filter0_i-141938" x="0.276367" y="0" width="177.869" height="177.869" filterUnits="userSpaceOnUse" color-interpolation-filters="sRGB"><feFlood data-v-35f9bdb1="" flood-opacity="0" result="BackgroundImageFix"/> <feBlend data-v-35f9bdb1="" mode="normal" in="SourceGraphic" in2="BackgroundImageFix" result="shape"/> <feColorMatrix data-v-35f9bdb1="" in="SourceAlpha" type="matrix" values="0 0 0 0 0 0 0 0 0 0 0 0 0 0 0 0 0 0 127 0" result="hardAlpha"/> <feOffset data-v-35f9bdb1=""/> <feGaussianBlur data-v-35f9bdb1="" stdDeviation="12.6198"/> <feComposite data-v-35f9bdb1="" in2="hardAlpha" operator="arithmetic" k2="-1" k3="1"/> <feColorMatrix data-v-35f9bdb1="" type="matrix" values="0 0 0 0 0.917667 0 0 0 0 0.683333 0 0 0 0 1 0 0 0 0.65 0"/> <feBlend data-v-35f9bdb1="" mode="normal" in2="shape" result="effect1_innerShadow"/></filter> <radialGradient data-v-35f9bdb1="" id="paint0_radial-603119" cx="0" cy="0" r="1" gradientUnits="userSpaceOnUse" gradientTransform="translate(161.911 79.5071) rotate(172.789) scale(174.997 159.034)"><stop data-v-35f9bdb1="" stop-color="#FF994F"/> <stop data-v-35f9bdb1="" offset="0.71875" stop-color="#EB6E53"/> <stop data-v-35f9bdb1="" offset="0.895833" stop-color="#DEFFFB"/></radialGradient> <linearGradient data-v-35f9bdb1="" id="paint1_linear-622963" x1="69.5324" y1="71.4112" x2="108.09" y2="115.611" gradientUnits="userSpaceOnUse"><stop data-v-35f9bdb1="" stop-color="#6F3500" stop-opacity="0.34"/> <stop data-v-35f9bdb1="" offset="1" stop-color="#B55700" stop-opacity="0"/></linearGradient></defs></svg>