<svg data-v-35f9bdb1="" width="156" height="156" viewBox="0 0 156 156" fill="none" xmlns="http://www.w3.org/2000/svg"><g data-v-35f9bdb1="" filter="url(#filter0_i-207629)"><path data-v-35f9bdb1="" d="M83.9385 0.536599C41.2476 -2.54552 4.14118 29.5638 1.05906 72.2547C-2.02306 114.946 30.0862 152.052 72.7772 155.134C115.468 158.216 152.575 126.107 155.657 83.4161C158.739 40.7251 126.629 3.61872 83.9385 0.536599Z" fill="url(#paint0_radial-900710)"/> <path data-v-35f9bdb1="" d="M83.9385 0.536599C41.2476 -2.54552 4.14118 29.5638 1.05906 72.2547C-2.02306 114.946 30.0862 152.052 72.7772 155.134C115.468 158.216 152.575 126.107 155.657 83.4161C158.739 40.7251 126.629 3.61872 83.9385 0.536599Z" fill="url(#paint1_radial-777306)"/></g> <path data-v-35f9bdb1="" fill-rule="evenodd" clip-rule="evenodd" d="M74.5802 86.0657C74.8943 89.0875 77.3826 91.7698 78.8411 91.9206C78.8927 91.9257 84.4813 91.8419 88.2637 87.4748C91.2074 84.0776 91.0318 80.292 87.9026 79.6865C86.7588 79.5788 73.9844 80.3072 74.5802 86.0657V86.0657ZM89.3139 69.4548L89.3118 69.4518L89.3165 69.45C87.1731 66.9481 84.1938 65.275 80.9166 64.7328C78.9233 64.3994 76.9603 64.5015 75.125 64.9614C74.7959 65.037 74.4812 65.1273 74.1814 65.2349C73.9698 65.3041 73.7594 65.3717 73.5533 65.4505L73.5969 65.4718C72.9791 65.7497 72.4114 66.1235 71.9155 66.5788C67.0989 71.044 79.7434 76.9898 86.8348 78.1893C89.7143 81.0311 92.0969 72.4217 89.3148 69.4549" fill="#D6F4FF" fill-opacity="0.08"/> <path data-v-35f9bdb1="" fill-rule="evenodd" clip-rule="evenodd" d="M75.5622 67.2595C73.2917 69.6406 66.9028 70.517 65.9543 70.055L65.9502 70.0421C66.0045 69.9675 66.0602 69.8949 66.1152 69.8213C67.0208 68.6343 68.1089 67.5931 69.3411 66.7346C70.337 66.0386 71.4179 65.4674 72.5592 65.0341C73.4899 64.6939 74.366 64.8082 74.6539 64.8459C77.3495 65.3492 75.5805 67.2408 75.5622 67.2595Z" fill="url(#paint2_linear-336931)"/> <path data-v-35f9bdb1="" fill-rule="evenodd" clip-rule="evenodd" d="M70.8923 85.9907C70.8807 86.8568 70.19 90.1672 69.9666 90.4183C69.8137 90.4023 69.4948 90.369 68.6642 89.7123C67.6416 88.8931 66.7348 87.9435 65.9683 86.889C65.084 85.6754 64.3941 84.3369 63.9227 82.9203C63.1906 80.7177 63.01 78.3776 63.3963 76.0989C63.5279 75.3121 63.722 74.5506 63.9732 73.8196C64.2712 72.9512 64.6537 72.1133 65.1154 71.3177C65.9358 72.859 66.9421 74.2989 67.7421 75.8507C68.5038 77.329 69.4961 79.6974 69.6936 80.201C70.9253 83.3276 70.9025 85.1269 70.8923 85.9907Z" fill="url(#paint3_linear-645708)"/> <path data-v-35f9bdb1="" fill-rule="evenodd" clip-rule="evenodd" d="M92.4675 80.9627C92.1583 82.8109 91.504 84.5168 90.5801 86.0277C88.5659 87.5462 77.7663 81.1734 77.6602 81.106C76.1955 80.1638 71.7345 77.2961 71.8438 73.9808C72.0005 69.2128 82.1958 67.5771 86.458 68.1638C86.9655 68.2548 88.5105 68.5307 89.2931 69.4007C90.6322 70.9984 91.6086 72.8572 92.1562 74.8517C92.7038 76.8463 92.81 78.9301 92.4675 80.9627ZM82.5388 92.296C81.1834 92.661 79.8692 92.0097 80.4299 90.8686C81.5068 88.6773 87.9369 87.3207 89.2909 87.4156C89.4577 87.4278 89.5086 87.5488 89.415 87.6621C87.6259 89.8232 85.2395 91.4314 82.5388 92.296Z" fill="url(#paint4_linear-317967)"/> <defs data-v-35f9bdb1=""><filter data-v-35f9bdb1="" id="filter0_i-207629" x="0.854492" y="0.332031" width="155.007" height="155.007" filterUnits="userSpaceOnUse" color-interpolation-filters="sRGB"><feFlood data-v-35f9bdb1="" flood-opacity="0" result="BackgroundImageFix"/> <feBlend data-v-35f9bdb1="" mode="normal" in="SourceGraphic" in2="BackgroundImageFix" result="shape"/> <feColorMatrix data-v-35f9bdb1="" in="SourceAlpha" type="matrix" values="0 0 0 0 0 0 0 0 0 0 0 0 0 0 0 0 0 0 127 0" result="hardAlpha"/> <feOffset data-v-35f9bdb1=""/> <feGaussianBlur data-v-35f9bdb1="" stdDeviation="13.5"/> <feComposite data-v-35f9bdb1="" in2="hardAlpha" operator="arithmetic" k2="-1" k3="1"/> <feColorMatrix data-v-35f9bdb1="" type="matrix" values="0 0 0 0 0.917667 0 0 0 0 0.683333 0 0 0 0 1 0 0 0 0.44 0"/> <feBlend data-v-35f9bdb1="" mode="normal" in2="shape" result="effect1_innerShadow"/></filter> <radialGradient data-v-35f9bdb1="" id="paint0_radial-900710" cx="0" cy="0" r="1" gradientUnits="userSpaceOnUse" gradientTransform="translate(-4.0542 12.3849) rotate(44.1751) scale(222.777)"><stop data-v-35f9bdb1="" offset="0.630208" stop-color="#00C2FF"/> <stop data-v-35f9bdb1="" offset="1" stop-color="white"/></radialGradient> <radialGradient data-v-35f9bdb1="" id="paint1_radial-777306" cx="0" cy="0" r="1" gradientUnits="userSpaceOnUse" gradientTransform="translate(151.963 103.029) rotate(-159.422) scale(178.057)"><stop data-v-35f9bdb1="" stop-color="#FFA3A3" stop-opacity="0"/> <stop data-v-35f9bdb1="" offset="0.737543" stop-color="#4A658E"/> <stop data-v-35f9bdb1="" offset="0.9375" stop-color="#A99CEC"/></radialGradient> <linearGradient data-v-35f9bdb1="" id="paint2_linear-336931" x1="91.0557" y1="72.7363" x2="64.5557" y2="83.7363" gradientUnits="userSpaceOnUse"><stop data-v-35f9bdb1="" stop-color="#7DC2EA"/> <stop data-v-35f9bdb1="" offset="1" stop-color="#5C94B9"/></linearGradient> <linearGradient data-v-35f9bdb1="" id="paint3_linear-645708" x1="91.0557" y1="72.7363" x2="64.5557" y2="83.7363" gradientUnits="userSpaceOnUse"><stop data-v-35f9bdb1="" stop-color="#7DC2EA"/> <stop data-v-35f9bdb1="" offset="1" stop-color="#5C94B9"/></linearGradient> <linearGradient data-v-35f9bdb1="" id="paint4_linear-317967" x1="91.0557" y1="72.7363" x2="64.5557" y2="83.7363" gradientUnits="userSpaceOnUse"><stop data-v-35f9bdb1="" stop-color="#7DC2EA"/> <stop data-v-35f9bdb1="" offset="1" stop-color="#5C94B9"/></linearGradient></defs></svg>